<?xml version="1.0" encoding="utf-8"?>
<!-- Generator: Adobe Illustrator 15.0.0, SVG Export Plug-In . SVG Version: 6.00 Build 0)  -->
<!DOCTYPE svg PUBLIC "-//W3C//DTD SVG 1.1//EN" "http://www.w3.org/Graphics/SVG/1.1/DTD/svg11.dtd">
<svg version="1.1" id="Layer_1" xmlns="http://www.w3.org/2000/svg" xmlns:xlink="http://www.w3.org/1999/xlink" x="0px" y="0px"
	 width="850.39px" height="850.39px" viewBox="0 0 850.39 850.39" enable-background="new 0 0 850.39 850.39" xml:space="preserve">
<g>
	<path fill-rule="evenodd" clip-rule="evenodd" fill="#FDFDFE" d="M1153.92,152.8c9.461-1.226,22.011,1.015,32.462,1.433
		c11.177,0.446,21.613,0.889,31.026,2.386c19.734,3.143,36.464,9.308,52.033,14.797c16.894,5.958,27.546,15.214,42.961,24.347
		c6.913,4.095,14.555,7.452,21.959,11.456c7.845,4.241,16.704,7.967,22.438,13.842c4.847,4.971,8.486,11.321,12.889,17.186
		c4.682,6.249,9.582,11.475,12.886,17.185c8.013,13.839,9.59,27.699,17.661,42.006c3.701,6.564,11.174,12.545,12.891,20.049
		c2.075,9.102-0.643,18.023,1.432,25.3c2.08,7.307,9.039,16.654,14.799,20.525c5.394,3.626,11.053,3.07,14.796,7.636
		c6.24,7.614,6.198,24.483,8.117,38.19c2.218,15.875,4.704,35.461-0.476,48.21c-3.563,8.763-9.081,19.017-13.366,24.347
		c-1.748,2.168-4.773,4.463-7.641,7.638c-2.207,2.444-5.332,6.734-7.157,7.64c-3.203,1.58-8.063,0.579-11.46,2.388
		c-6.229,3.311-8.226,12.344-11.935,21.004c-3.41,7.961-7.767,16.131-9.069,23.387c-3.138,17.505,0.864,31.4-6.682,43.441
		c-3.232,5.155-11.275,8.909-16.71,15.276c-5.189,6.079-8.224,13.173-12.407,16.706c-2.82,2.373-8.974,3.861-11.936,6.204
		c-6.693,5.302-11.271,16.923-18.139,24.344c-3.118,3.369-6.71,5.722-10.982,10.027c-3.266,3.292-6.621,8.68-11.455,9.548
		c-5.186,0.929-10.534-1.396-15.272-1.913c-5.117-0.554-10.45-1.895-15.753-0.477c-6.373,1.709-10.982,9.167-16.709,11.936
		c-16.689,8.065-38.901,8.912-58.715,11.933c-10.623,1.623-20.843,3.31-31.505,3.822c-10.885,0.518-21.747-1.219-32.459-2.865
		c-18.467-2.844-38.852-8.008-56.33-14.321c-8.019-2.899-16.149-7.124-24.822-10.504c-8.984-3.499-18.049-5.928-24.822-10.024
		c-5.601-3.389-11.506-8.388-17.184-12.887c-11.376-9.02-18.702-20.075-28.164-31.505c-4.878-5.895-10.954-10.172-14.32-15.276
		c-8.965-13.596-7.814-37.028-22.436-45.826c-3.6-2.165-11.004-3.991-14.799-6.204c-7.301-4.264-11.311-9.371-13.842-15.755
		c-7.443-18.753,2.426-46.771-0.479-73.033c-1.219-11.036-11.443-19.656-17.662-27.208c-6.141-7.46-16.638-15.436-14.32-30.077
		c1.505-9.501,11.74-16.509,15.754-30.072c3.975-13.439,2.443-28.547,9.068-39.62c5.173-8.647,16.865-15.385,20.525-25.301
		c4.94-13.374-2.156-28.168,0.955-40.575c1.611-6.424,12.995-20.879,18.617-21.481c6.647-0.708,12.352,6.024,19.572,6.206
		c5.876,0.147,13.188-3.631,18.616-7.16c7.495-4.874,16.307-13.374,20.526-19.572c2.762-4.056,4.068-9.132,6.683-13.365
		c2.471-4,5.944-7.167,9.069-10.978c10.096-12.314,16.497-24.043,35.324-26.732c5.711-0.817,11.856,1.064,18.617,0
		c24.986-3.942,48.703-14.638,76.375-17.664C1153.281,152.766,1153.607,152.841,1153.92,152.8z M1152.014,521.795
		c1.974-7.612,9.289-13.523,14.318-20.527c4.767-6.635,10.324-14.968,12.413-22.435c4.194-14.99-4.792-20.939-7.642-32.458
		c-1.243-5.04-1.434-10.136-2.86-13.847c-2.973-7.707-9.89-13.262-11.458-21.002c-4.072-20.099,12.806-25.627,13.365-42.006
		c0.202-5.915-0.517-10.105-2.862-15.276c-2.456-5.405-8.279-9.966-9.07-17.185c-0.628-5.725,1.982-12.089,2.388-18.139
		c0.896-13.39,0.721-28.217,1.908-42.485c1.178-14.152,4.805-27.579,5.729-39.143c1.228-15.402-3.241-20.862-5.729-33.416
		c-2.463-12.425,1.655-25.732-10.98-25.775c-6.752-0.024-17.032,2.198-24.344,4.295c-3.887,1.115-7.484,3.45-11.458,4.772
		c-4.351,1.452-9.024,1.855-12.888,3.343c-5.304,2.042-9.424,6.144-15.275,7.161c-9.745,1.694-21.59-3.569-30.072-0.477
		c-8.373,3.049-15.455,16.293-21.48,24.821c-2.971,4.201-6.363,9.261-9.549,13.844c-3.256,4.684-6.67,10.486-10.5,12.889
		c-3.653,2.291-8.189,2.326-12.411,3.819c-5.886,2.078-13.007,5.265-17.663,8.115c-5.297,3.243-9.227,10.171-14.798,14.32
		c-3.528,2.627-10.433,4.671-12.888,7.637c-5.826,7.038-7.146,25.117-5.729,36.28c0.758,5.97,5.201,10.781,4.773,18.139
		c-0.195,3.342-3.059,10.961-8.115,10.979c-4.016,0.015-6.252-7.243-10.025-5.729c-3.741,1.505-5.207,13.158-8.113,16.707
		c-3.416,4.172-8.369,4.763-10.98,7.637c-4.26,4.692-14.673,28.619-12.889,42.962c2.127,17.079,18.735,15.251,23.869,27.686
		c3.176,7.698,2.047,20.165,1.432,30.554c-1.136,19.213-5.479,43.706,8.592,50.121c3.42,1.561,7.543,1.3,10.979,2.865
		c7.336,3.338,13.135,15.328,15.754,22.435c4.496,12.192,3.919,26.963,9.546,36.756c2.108,3.667,6.113,7.21,9.07,10.502
		c3.161,3.518,6.399,7.506,9.548,10.023c6.142,4.916,14.512,7.074,21.958,11.936c8.133,5.31,13.634,12.477,20.525,17.184
		c6.847,4.676,15.269,8.38,22.913,12.888c16.119,9.508,31.576,14.483,52.033,19.573c10.037,2.498,20.32,4.282,31.025,5.248
		c11.632,1.052,22.658-0.952,33.893-0.952c11.39,0,22.843-1.362,34.37-1.911c11.853-0.565,20.952-3.453,28.639-7.159
		c11.613-5.597,19.179-14.176,34.848-16.706c4.414-0.714,9.104-2.21,12.89-2.388c3.671-0.172,7.055,1.684,11.934,0
		c5.167-1.785,8.162-9.408,10.979-15.752c5.372-12.097,11.478-22.084,21.479-27.687c4.812-2.695,10.591-3.037,14.323-5.254
		c6.747-4.005,9.881-12.805,13.844-20.524c3.455-6.733,8.23-12.757,10.5-19.094c5.595-15.622,2.139-37.16,8.116-53.942
		c3.466-9.73,9.942-18.882,14.797-27.21c5.268-9.033,10.834-19.175,13.364-29.117c2.883-11.309-1.485-22.176-1.428-35.8
		c0.042-10.894,0.292-21.85-1.91-30.075c-2.28-8.514-5.852-16.938-7.162-25.299c-1.536-9.823-2.284-18.901-5.252-27.686
		c-5.369-15.916-13.354-31.092-20.525-44.872c-3.48-6.689-7.962-13.844-13.843-19.094c-6.121-5.464-11.226-11.824-16.705-16.23
		c-3.376-2.707-6.899-4.394-10.026-6.682c-2.841-2.077-5.531-4.87-9.546-7.16c-5.441-3.105-11.17-4.742-16.229-7.639
		c-4.985-2.85-9.39-6.242-14.321-9.546c-10.112-6.771-21.107-9.89-33.414-14.799c-5.646-2.249-10.819-5.482-16.712-7.159
		c-12.088-3.441-26.19-5.703-41.05-7.161c-7.333-0.718-17.685-2.368-21.959,0.479c-3.978,2.647-3.852,11.021-3.341,15.752
		c1.095,10.173,6.464,19.659,7.163,29.597c0.741,10.603-3.792,17.138-5.733,26.729c-1.378,6.83-0.759,15.634-1.43,24.346
		c-0.435,5.651-2.018,11.062-2.389,16.23c-1.277,17.822,4.184,25.749,8.116,38.667c2.633,8.65,5.792,17.415,7.638,25.777
		c3.854,17.461-0.745,37.896,4.299,53.462c1.243,3.839,3.357,7.26,3.816,10.98c1.746,14.134-3.487,24.079-5.251,37.711
		c-1.273,9.843-0.95,20.208-2.864,29.595c-2.719,13.322-11.438,24.592-18.14,35.321c-2.904,4.654-7.813,12.707-5.727,17.664
		c2.002,4.753,12.69,5.108,18.614,5.729c8.05,0.844,16.539,1.912,23.391,0.954c8.918-1.252,14.071-6.722,21.484-12.89
		c5.535-4.607,12.293-7.991,16.705-11.934c7.618-6.809,11.301-20.78,21.958-23.869c5.524-1.597,9.646,0.315,13.364-1.428
		c8.419-3.95,10.293-26.894,11.936-38.189c0.972-6.686,1.695-14.843,3.344-21.482c1.156-4.677,1.972-16.109,11.933-11.455
		c0.618,10.719-6.129,20.723-8.596,32.461c-3.886,18.539-4.372,43.008-19.092,48.689c-3.629,1.4-8.215,0.926-11.935,2.385
		c-5.287,2.079-9.097,8.229-13.363,13.364c-4.033,4.854-8.659,10.637-12.893,13.847c-3.87,2.938-10.013,5.021-14.793,8.592
		c-5.021,3.746-8.514,8.268-13.846,10.022c-13.111,4.317-33.472-0.12-45.348-0.952c-11.011-0.775-19.829,1.29-28.165,0
		c-7.289-1.129-15.164-4.025-21.959-7.161c-10.9-5.026-17.566-14.029-26.73-21.004c-4.547-3.459-10.171-5.812-14.799-9.548
		c-4.978-4.017-9.518-10.49-14.799-16.228c-11.963-13.001-13.097-27.837-18.615-47.261c-1.171-4.119-2.65-9.016-3.343-13.842
		c-0.711-4.973-2.296-12.447,1.91-13.843c4.409,3.054,2.237,8.979,2.864,13.364c0.81,5.676,3.495,13.306,5.251,20.525
		c1.897,7.812,3.18,14.877,5.728,20.05c3.807,7.723,11.049,10.904,17.187,17.665c4.988,5.492,8.531,10.23,13.843,14.32
		c17.912,13.781,33.035,35.188,62.056,32.937C1153.471,539.913,1149.932,529.794,1152.014,521.795z"/>
	<path fill-rule="evenodd" clip-rule="evenodd" fill="#FDFDFE" d="M973.48,427.757c2.582,7.449,4.869,16.379,4.775,26.253
		c-0.159,16.647-7.408,30.442,4.295,39.619c4.865,3.819,12.006,4.287,19.572,6.207c7.801,13.661,3.85,28.819,9.547,41.531
		c3.733,8.33,11.698,15.187,17.661,21.481c6.427,6.779,12.397,14.349,20.049,19.094c8.182,5.07,17.683,5.514,26.731,9.069
		c17.07,6.706,32.296,20.565,51.078,24.822c21.22,4.81,44.996,4.587,69.693,1.432c5.139-0.655,9.495-3.48,15.273-3.819
		c6.717-0.39,13.748,2.732,20.529,1.911c6.229-0.755,16.871-7.806,21.481-11.46c8.325-6.597,13.789-16.865,21.48-22.912
		c4.036-3.172,10.341-4.704,15.274-8.592c6.747-5.313,10.491-14.442,17.184-15.751c5.582-1.096,10.211,1.507,14.321,0.952
		c3.401-0.455,6.852-2.446,10.502-4.294c3.417-1.729,7.241-3.035,9.545-5.252c4.225-4.062,6.062-11.91,8.119-18.617
		c3.969-12.948,8.585-28.831,9.546-43.913c0.722-11.391-3.546-20.987-2.389-33.418c0.884-9.501,6.262-17.217,9.547-24.821
		c5.028-0.529,14.539-1.524,18.142,0.955c-0.837,9.09-6.823,13.989-10.024,21.004c-9.313,20.39-6.712,53.869-14.321,77.33
		c-1.829,5.636-4.818,12.009-7.161,19.098c-2.159,6.525-4.792,14.045-9.067,17.183c-3.248,2.379-8.411,2.891-12.414,4.77
		c-3.284,1.546-6.559,4.267-10.023,6.21c-3.616,2.024-7.433,3.393-10.502,5.249c-4.541,2.751-8.35,6.923-12.889,10.5
		c-4.306,3.397-9.609,5.821-13.844,9.073c-7.497,5.752-12.261,14.13-19.57,19.091c-5.465,3.715-10.53,4.478-14.799,6.683
		c-5.741,2.97-10.087,8.54-16.229,10.025c-8.047,1.95-17.375-0.536-26.258,0c-19.199,1.166-38.325,4.242-59.667,3.343
		c-19.463-0.818-40.104-6.681-56.328-15.274c-8.424-4.461-17.416-6.339-25.299-10.503c-8.082-4.269-16.604-8.073-23.391-13.364
		c-7.406-5.778-12.592-13.707-18.617-21.003c-5.965-7.228-14.178-13.179-19.093-20.53c-5.745-8.59-7.466-19.729-13.367-29.117
		c-5.355-8.519-12.921-11.253-18.14-17.187c-9.188-10.446-10.266-25.863-13.843-44.869c-1.241-6.596-3.738-15.39-4.296-21.481
		c-0.735-8.021-1.208-15.564,2.387-17.184C962.402,425.604,969.554,426.93,973.48,427.757z"/>
	<path fill-rule="evenodd" clip-rule="evenodd" fill="#FDFDFE" d="M1344.864,429.19c-2.81,13.787-3.028,26.44-4.298,41.051
		c-1.2,13.828-0.511,29.614-6.682,39.621c-2.183,3.533-6.37,5.411-10.026,9.546c-3.185,3.603-5.582,7.992-8.592,10.023
		c-3.895,2.633-9.323,3.22-13.843,5.729c-4.854,2.697-8.842,7.858-13.842,10.98c-3.229,2.016-7.547,3.112-11.46,5.25
		c-9.049,4.944-17.214,13.151-25.774,19.571c-3.711,2.782-8.598,6.354-12.89,10.023c-4.374,3.747-8.683,8.64-12.412,10.026
		c-6.755,2.506-13.487-0.48-20.524,0c-6.854,0.468-11.663,3.646-17.661,4.294c-6.812,0.741-13.925-1.251-21.006-1.908
		c-5.757-0.535-13.384,0.48-20.526,0c-12.512-0.839-24.756-5.927-35.801-11.934c-10.285-5.595-21.523-11.467-30.072-17.662
		c-8.746-6.337-17.24-13.123-27.211-20.525c-8.652-6.426-18.994-17.197-22.435-25.3c-4.462-10.505-0.719-24.837-1.909-38.188
		c-1.455-16.32-17.201-31.204-9.07-48.213c2.27-0.279,4.402-0.692,7.16-0.479c2.543,8.752,1.605,16.863,3.819,24.822
		c2.123,7.639,5.879,14.152,7.159,21.481c1.125,6.436,0.512,12.499,1.433,18.14c1.476,9.04,5.243,17.848,10.502,25.301
		c4.94,6.997,12.267,11.56,20.05,17.185c7.295,5.271,13.922,11.233,21.002,16.227c14.68,10.363,30.685,21.282,49.645,24.824
		c9.395,1.754,17.717-0.254,27.212,0.477c5.919,0.456,11.808,2.937,17.66,2.863c6.02-0.076,10.656-2.684,16.71-2.863
		c6.295-0.186,12.725,1.609,18.141-0.477c4.628-1.786,7.605-6.554,11.932-10.024c4.393-3.527,9.965-5.743,13.364-8.591
		c9.45-7.918,13.61-18.139,24.823-24.827c4.567-2.722,9.491-3.19,14.796-5.726c3.622-1.727,6.809-4.919,10.982-8.114
		c3.59-2.752,8.713-5.186,10.978-7.636c3.127-3.391,4.147-9.393,6.681-14.323c1.826-3.546,5.526-6.735,8.116-11.454
		c5.752-10.485,8.986-28.632,10.98-44.873c0.902-7.354,0.328-13.761,4.772-15.274C1339.218,427.392,1342.677,427.47,1344.864,429.19
		z"/>
</g>
<g>
	<path fill="#FDFDFE" d="M-531.162,614.299c-105.413,0-191.172-85.761-191.172-191.174v-0.005h-25.822v0.005
		c0,119.649,97.342,216.984,216.995,216.984c119.65,0,216.989-97.335,216.989-216.984v-0.005h-25.815v0.005
		C-339.988,528.538-425.749,614.299-531.162,614.299z"/>
	<path fill="#FDFDFE" d="M-378.225,423.125c0,84.332-68.6,152.938-152.938,152.938c-84.334,0-152.944-68.605-152.944-152.938v-0.005
		h-20.645v0.005c0,95.719,77.868,173.59,173.589,173.59c95.717,0,173.594-77.871,173.594-173.59v-0.005h-20.656V423.125z"/>
	<path fill="#FDFDFE" d="M-531.162,151.887c-149.562,0-271.242,121.674-271.242,271.233v0.005
		c0,149.562,121.68,271.235,271.242,271.235c149.558,0,271.232-121.674,271.232-271.235v-0.005
		C-259.93,273.562-381.604,151.887-531.162,151.887z M-292.202,423.125c0,131.766-107.194,238.962-238.96,238.962
		c-131.768,0-238.966-107.196-238.966-238.962v-0.005c0-127.902,101.005-232.632,227.44-238.666v360.465
		c-62.074-5.833-110.826-58.225-110.826-121.794v-0.005h-16.511v0.005c0,76.572,62.292,138.864,138.863,138.864
		c76.576,0,138.877-62.292,138.877-138.864v-0.005h-16.52v0.005c0,63.569-48.747,115.961-110.835,121.794V184.454
		c126.438,6.034,227.438,110.764,227.438,238.666V423.125z"/>
</g>
<g>
	<g>
		<g>
			<path fill-rule="evenodd" clip-rule="evenodd" fill="#FDFDFE" d="M170.459,316.033c1.677,0,3.357,0,5.036,0
				c14.921,11.103,29.439,22.61,52.884,25.185c0.853,1.834-1.946,3.809-3.145,5.037c-12.354,12.623-26.386,25.263-37.776,37.773
				c42.914-15.8,78.534,11.775,67.366,51.629c-4.867,17.364-21.01,28.982-34.628,41.55c-14.656,13.525-27.008,27.653-42.813,34
				c-20.789,8.344-42.567-5.738-58.551-12.593c-19.318-8.286-45.784-20.276-64.847-7.556c-1.057-2.229,2.077-3.439,3.147-4.407
				c11.674-10.54,32.792-27.418,35.257-45.33c3.256-23.654-2.416-47.971,0-74.291c-12.916,7.233-22.609,23.141-35.257,32.738
				c-4.334-9.095-12.221-14.641-20.146-20.146c0-0.63,0-1.261,0-1.889c3.875-4.689,8.207-8.206,13.221-13.222
				c3.012-3.014,8.953-11.986,14.481-11.964c6.639,0.028,14.126,14.659,18.257,14.481c0.777-0.034,9.629-9.091,10.703-10.072
				c11.927-10.919,20.28-21.472,36.517-26.443c-17.825,17.525-7.217,66.33-10.074,100.104c-4.815,7.936-12.069,16.224-18.258,22.665
				c-1.916,1.996-5.863,3.797-5.037,6.297c4.348-0.9,9.893-0.601,15.112-0.631c8.599-9.994,22.047-19.54,25.812-35.258
				c5.152-21.515-2.511-50.143,0.629-75.55C146.898,335.287,157.865,324.847,170.459,316.033z M166.053,397.251
				c8.873-7.712,22.18-19.778,28.96-29.592c-12.635-0.168-20.092-5.511-28.96-9.444C166.053,371.229,166.053,384.24,166.053,397.251
				z M176.754,481.616c6.337,2.097,14.853,7.03,20.777,6.294c4.452-0.553,10.616-6.555,13.851-9.444
				c7.233-6.454,13.199-12.349,13.852-22.664c1.774-28.086-20.772-52-47.851-49.736c-3.676,0.308-10.239,1.43-14.479,4.406
				c-3.971,2.787-7.174,8.557-10.705,12.592c-11.624,13.291-22.962,24.281-33.996,37.776
				C137.469,468.028,156.01,474.75,176.754,481.616z"/>
			<path fill-rule="evenodd" clip-rule="evenodd" fill="#FDFDFE" d="M316.522,495.466c-0.413-5.636-3.862-13.469-2.519-20.148
				c2.306-11.446,19.347-20.107,29.591-25.81c13.484-7.508,26.221-13.403,37.776-17.63c-1.594-12.674-14.006-39.752-28.962-39.662
				c-9.058,0.05-11.227,9.898-17.628,14.479c1.803-9.466,10.074-16.394,18.257-22.035c9.058-6.246,22.688-15.59,37.775-12.594
				c12.108,2.407,29.038,20.014,30.851,33.368c3.172,23.406-2.367,59.257,0,86.253c-12.484,7.874-26.264,14.451-40.293,20.779
				c0-7.348,0-14.692,0-22.038c-5.929,2.234-13.943,7.121-22.666,11.963c-8.066,4.478-16.941,11.542-25.184,10.703
				c-8.31-0.844-11.461-8.873-15.111-15.738c-6.794,3.396-12.885,6.129-20.145,8.812c-5.991,2.217-15.068,7.195-22.036,6.298
				c-8.899-1.146-17.706-18.768-18.888-30.222c-3.989-38.641,3.406-90.092,0-129.695c-0.271-3.152-2.455-8.572-1.888-10.703
				c1.083-4.078,25.044-15.341,33.998-13.849c11.623,1.934,8.185,26.706,8.185,42.81c0,28.529-2.51,66.247,0,93.181
				C298.961,478.22,306.958,490.059,316.522,495.466z M380.741,436.913c-10.443,5.001-31.988,11.595-33.998,22.668
				c-3.441,18.959,17.033,37.825,34.628,25.182C380.95,469.022,382.209,451.607,380.741,436.913z"/>
			<path fill-rule="evenodd" clip-rule="evenodd" fill="#FDFDFE" d="M810.117,491.687c0,0.421,0,0.842,0,1.262
				c-5,2.93-10.863,7.375-18.256,11.332c-6.479,3.467-15.104,8.679-20.777,8.186c-8.812-0.771-20.932-17.044-27.072-23.925
				c-8.846-9.912-15.77-20.475-24.553-26.442c0,12.801,0,25.602,0,38.403c-13.791,3.627-26.105,8.73-40.295,11.964
				c0-38.407,0-76.809,0-115.215c-4.912,2.29-10.143,6.423-16.369,10.073c-5.398,3.166-13.512,9.57-18.887,9.443
				c-5.871-0.139-13.338-8.385-17.629-11.961c-6.322-5.269-10.949-9.384-16.367-13.852c-10.691,17.074-7.93,44.977,0,61.698
				c7.891,16.652,24.297,37.804,46.586,36.516c-5.053,5.65-12.611,8.361-20.146,12.594c-6.645,3.73-14.768,10.423-22.664,10.703
				c-13.488,0.479-25.893-14.72-32.74-23.297c-9.588-12.015-15.854-23.842-16.996-39.661c-2.939-40.691,32.197-61.032,59.182-71.773
				c5.215-2.077,13.43-5.984,18.885-5.669c6.291,0.366,14.164,6.169,19.52,9.445c6.469,3.962,11.189,8.062,17.627,11.961
				c-0.545-12.311,0.727-26.328,0-37.144c-0.273-4.098-2.916-10.396-1.889-13.852c1.359-4.576,13.178-7.629,17-8.813
				c7.512-2.33,14.664-4.173,21.406-3.779c5.568,6.262,3.777,17.559,3.777,28.331c0,11.007,0,22.802,0,32.74
				c6.225-3.153,13.42-7.292,21.406-11.962c6.273-3.669,15.621-11.763,23.293-11.334c6.887,0.386,13.143,10.138,17.627,17
				c5.428,8.297,10.332,15.479,9.447,25.183c-0.828,9.066-10.055,14.374-15.742,18.258c-6.596,4.505-12.229,7.727-20.146,11.333
				C777.047,453.406,787.359,478.768,810.117,491.687z M737.717,445.729c5.176-3.376,14.469-7.824,15.74-13.851
				c3.121-14.816-14.357-36.696-22.664-40.293c-3.047-0.306-7.971,2.936-11.334,4.407c0,20.147,0,40.293,0,60.438
				C725.879,453.633,731.094,450.047,737.717,445.729z"/>
			<path fill-rule="evenodd" clip-rule="evenodd" fill="#FDFDFE" d="M473.289,395.361c12.266-5.314,27.859-17.525,44.072-22.034
				c15.629-4.349,36.201,6.437,39.033,20.145c2.666,12.913,0,29.616,0,42.813c0,21.202-4.93,50.766,16.369,52.256
				c-3.535,5.99-9.617,9.421-16.369,13.85c-4.652,3.052-14.309,10.652-19.516,10.703c-6.66,0.065-18.398-10.89-20.148-16.367
				c-3.328-10.428-0.631-27.71-0.631-42.184c0-14.896,2.367-32.035,0-42.812c-3.781-17.225-33.179-23.899-42.811-6.924
				c0,31.898,0,63.798,0,95.695c-14.105,3.945-25.826,10.27-40.292,13.854c0-16.378,0-34.736,0-53.516
				c0-18.278,2.694-38.563,0-53.516c-1.11-6.16-6.894-10.502-10.704-14.48c7.045-6.202,20.836-16.229,30.85-20.147
				C463.41,368.677,471.493,384.004,473.289,395.361z"/>
			<path fill-rule="evenodd" clip-rule="evenodd" fill="#FDFDFE" d="M113.166,749.479c-1.468,0-2.938,0-4.407,0
				c-15.421-11.796-46.334-19.249-66.734-6.928c-0.771-3.663,5.177-6.732,8.184-9.442c11.415-10.281,25.967-25.831,44.07-25.184
				c6.812-35.164,1.43-85.737,3.148-127.175c14.014-19.774,36.577-31.002,61.071-40.294c-4.357,7.232-9.929,11.374-15.741,17.627
				c-4.578,4.927-12.406,12.262-13.851,20.146c-2.51,13.715,0,32.387,0,49.109c0,17.383,1.88,35.863,0,49.106
				c-2.333,16.449-17.188,23.558-27.072,33.368c7.435,2.011,15.7,3.189,22.037,6.298c8.751-5.203,16.296-11.77,19.516-20.777
				c5.073-14.188,1.889-38.224,1.889-59.181c0-17.103-2.638-36.175,0-50.368c1.918-10.309,16.682-23.195,22.667-28.959
				c8.47-8.161,18.258-19.876,30.22-22.037c7.726-1.396,16.84,0.153,26.441,0.629c25.758,1.284,52.05,10.195,52.888,35.258
				c8.343-4.36,16.407-11.021,25.183-17.628c7.969-6,17.402-15.858,27.071-17.63c7.829-1.433,17.84,0.526,25.812,1.891
				c35.534,6.076,60.372,27.733,60.442,66.105c0.076,43.292-30.584,65.501-54.145,86.253c15.471,5.096,31.048,10.084,45.331,16.37
				c-2.089-13.761,4.58-19.9,12.592-26.44c15.408-12.585,38.102-21.179,54.773-28.333c-1.677-13.628-14.656-39.75-28.961-39.666
				c-9.059,0.054-11.227,9.902-17.629,14.482c1.805-9.467,10.074-16.394,18.26-22.036c9.303-6.413,23.38-15.453,37.775-12.591
				c12.043,2.394,29.113,19.96,30.85,33.996c3.02,24.448-2.24,57.274,0,85.626c-12.485,7.869-26.267,14.448-40.295,20.772
				c0-7.344,0-14.687,0-22.034c-5.971,2.259-13.896,7.096-22.664,11.963c-7.89,4.38-16.888,11.548-25.185,10.702
				c-10.267-1.043-13.761-12.831-17.628-22.034c-9.06,6.262-21.194,14.901-32.108,21.403c-17.263-7.104-36.292-18.368-60.442-14.479
				c12.826-10.841,28.871-18.693,40.294-32.109c10.877-12.773,19.883-30.089,21.405-50.996
				c3.227-44.334-20.435-72.752-69.253-69.254c-12.79,0.915-22.648,5.214-31.478,11.332c0,15.949,0,31.897,0,47.85
				c14.976,2.656,39.253,4.744,52.884-0.631c-4.405,11.36-8.799,26.299-20.776,30.222c-8.834,2.892-20.112-0.574-31.479,0
				c-1.47,19.937-0.211,42.601-0.629,63.587c-10.724,4.809-20.513,10.55-32.109,14.479c0-26.23,0-52.464,0-78.697
				c-17.943-2.472-39.767-1.129-51.626,6.298c5.192-11.07,11.646-30.29,23.923-33.999c7.308-2.207,16.886,0.32,27.703-0.63
				c-2.144-16.235,3.161-33.709-0.629-45.959c-6.159-19.907-43.855-12.082-67.368-13.851c-2.796,33.129,1.57,78.659-0.629,111.436
				c-1.814,27.061-23.214,35.396-44.07,43.444c2.955,2.917,7.955,3.796,10.702,6.923
				C136.17,737.227,123.723,742.405,113.166,749.479z M473.919,656.3c-10.442,4.998-31.987,11.593-33.997,22.666
				c-3.441,18.961,17.031,37.824,34.627,25.182C474.129,688.408,475.389,670.992,473.919,656.3z"/>
			<path fill-rule="evenodd" clip-rule="evenodd" fill="#FDFDFE" d="M638.242,609.711c-4.889,5.961-9.875,8.56-16.369,13.223
				c-3.494,2.503-11.977,11.193-17.631,11.33c-4.861,0.116-17.652-9.245-22.664-11.962c-10.027-5.438-32.398-20.671-30.217,4.406
				c0.77,8.882,10.67,34.799,18.887,35.257c4.135,0.232,18.068-12.003,21.402-14.48c7.145-5.305,14.252-12.766,21.406-13.849
				c13.662-2.069,28.961,9.763,37.145,17.628c3.326,3.191,6.086,7.427,8.818,11.33c-3.627-29.182,13.77-41.838,33.994-53.514
				c13.242-7.641,30.262-18.311,44.074-17.627c15.896,0.785,28.178,12.932,41.551,18.258c-4.879,5.953-9.885,8.566-16.369,13.223
				c-3.617,2.592-11.984,11.195-17.629,11.33c-4.611,0.113-18.033-9.45-22.666-11.962c-9.098-4.936-32.387-20.535-30.217,4.406
				c0.537,6.225,3.742,13.543,6.924,20.148c2.934,6.084,6.887,14.826,11.961,15.108c4.824,0.271,17.811-11.808,21.408-14.48
				c6.445-4.784,14.639-12.825,21.406-13.849c14.863-2.253,34.645,13.963,40.922,21.404c7.389,8.759,8.791,19.285,0.629,28.961
				c-9.088,10.772-22.961,19.775-36.516,27.702c-13.283,7.767-30.611,18.293-44.07,20.145
				c-22.945,3.161-36.064-10.868-52.885-19.514c7.471-7.744,17.924-13.531,28.33-20.148c3.49-2.217,7.004-5.686,10.074-5.666
				c5.076,0.034,13.898,8.69,19.518,11.963c13.316,7.754,37.771,17.76,46.588-1.262c-3.613-10.762-8.625-16.775-16.367-23.923
				c-5.48-5.055-17.068-14.472-26.445-13.222c-6.943,0.93-15.051,11.058-20.775,15.741c-6.527,5.34-14.254,14.357-22.666,13.85
				c-10.277-0.617-14.697-13.213-18.889-22.035c0.324,5.863-1.986,11.262-6.293,16.369c-8.547,10.133-21.834,19.114-36.516,27.702
				c-13.035,7.621-30.883,18.33-44.072,20.145c-22.979,3.164-38.113-11.95-52.887-19.514c7.473-7.744,17.928-13.531,28.332-20.148
				c3.488-2.217,7.008-5.686,10.072-5.666c5.08,0.034,13.898,8.69,19.52,11.963c13.316,7.754,37.771,17.76,46.59-1.262
				c-3.605-10.713-8.529-16.688-16.369-23.923c-5.715-5.272-17.432-14.424-26.443-13.222c-6.357,0.849-15.209,11.187-20.775,15.741
				c-6.686,5.465-14.008,14.01-22.035,13.85c-11.164-0.223-20.74-19.331-22.037-29.591c-0.902-7.124,0.045-16.309,2.518-21.405
				c5.357-11.035,16.84-20.696,30.854-28.96c13.771-8.125,30.031-17.048,40.92-18.258
				C609.014,589.593,623.902,604.071,638.242,609.711z"/>
		</g>
	</g>
	<g>
		<path fill="#FDFDFE" d="M423.554,286.086c-44.729,0-81.118-36.39-81.118-81.118v-0.002h-10.957v0.002
			c0,50.77,41.304,92.07,92.074,92.07c50.77,0,92.071-41.301,92.071-92.07v-0.002h-10.953v0.002
			C504.672,249.696,468.281,286.086,423.554,286.086z"/>
		<path fill="#FDFDFE" d="M488.447,204.968c0,35.784-29.107,64.894-64.894,64.894c-35.785,0-64.896-29.11-64.896-64.894v-0.002
			h-8.76v0.002c0,40.615,33.041,73.657,73.657,73.657c40.614,0,73.659-33.042,73.659-73.657v-0.002h-8.766V204.968z"/>
		<path fill="#FDFDFE" d="M423.554,89.878c-63.461,0-115.092,51.628-115.092,115.088v0.002c0,63.461,51.631,115.09,115.092,115.09
			c63.46,0,115.089-51.629,115.089-115.09v-0.002C538.643,141.506,487.014,89.878,423.554,89.878z M524.949,204.968
			c0,55.911-45.485,101.396-101.396,101.396c-55.911,0-101.397-45.485-101.397-101.396v-0.002c0-54.271,42.858-98.709,96.506-101.27
			v152.951c-26.339-2.475-47.024-24.705-47.024-51.679v-0.002h-7.006v0.002c0,32.491,26.431,58.922,58.922,58.922
			c32.493,0,58.928-26.432,58.928-58.922v-0.002h-7.01v0.002c0,26.974-20.685,49.204-47.028,51.679V103.697
			c53.648,2.56,96.506,46.999,96.506,101.27V204.968z"/>
	</g>
</g>
</svg>
