<?xml version="1.0" encoding="utf-8"?>
<!-- Generator: Adobe Illustrator 15.0.0, SVG Export Plug-In . SVG Version: 6.00 Build 0)  -->
<!DOCTYPE svg PUBLIC "-//W3C//DTD SVG 1.1//EN" "http://www.w3.org/Graphics/SVG/1.1/DTD/svg11.dtd">
<svg version="1.1" id="Layer_1" xmlns="http://www.w3.org/2000/svg" xmlns:xlink="http://www.w3.org/1999/xlink" x="0px" y="0px"
	 width="850.39px" height="850.39px" viewBox="0 0 850.39 850.39" enable-background="new 0 0 850.39 850.39" xml:space="preserve">
<g>
	<path fill-rule="evenodd" clip-rule="evenodd" fill="#FDFDFE" d="M412.254,152.8c9.46-1.226,22.01,1.015,32.461,1.433
		c11.177,0.446,21.613,0.889,31.026,2.386c19.734,3.143,36.464,9.308,52.033,14.797c16.894,5.958,27.546,15.214,42.961,24.347
		c6.913,4.095,14.555,7.452,21.959,11.456c7.845,4.241,16.704,7.967,22.438,13.842c4.847,4.971,8.486,11.321,12.889,17.186
		c4.682,6.249,9.582,11.475,12.886,17.185c8.013,13.839,9.59,27.699,17.661,42.006c3.701,6.564,11.174,12.545,12.891,20.049
		c2.075,9.102-0.643,18.023,1.432,25.3c2.08,7.307,9.039,16.654,14.799,20.525c5.394,3.626,11.053,3.07,14.796,7.636
		c6.24,7.614,6.198,24.483,8.117,38.19c2.218,15.875,4.704,35.461-0.476,48.21c-3.563,8.763-9.081,19.017-13.366,24.347
		c-1.748,2.168-4.773,4.463-7.641,7.638c-2.207,2.444-5.332,6.734-7.157,7.64c-3.203,1.58-8.063,0.579-11.46,2.388
		c-6.229,3.311-8.226,12.344-11.935,21.004c-3.41,7.961-7.767,16.131-9.069,23.387c-3.138,17.505,0.864,31.4-6.682,43.441
		c-3.232,5.155-11.275,8.909-16.71,15.276c-5.189,6.079-8.224,13.173-12.407,16.706c-2.82,2.373-8.974,3.861-11.936,6.204
		c-6.693,5.302-11.271,16.923-18.139,24.344c-3.118,3.369-6.71,5.722-10.982,10.027c-3.266,3.292-6.621,8.68-11.455,9.548
		c-5.186,0.929-10.534-1.396-15.272-1.913c-5.117-0.554-10.45-1.895-15.753-0.477c-6.373,1.709-10.982,9.167-16.709,11.936
		c-16.689,8.065-38.901,8.912-58.715,11.933c-10.623,1.623-20.843,3.31-31.504,3.822c-10.885,0.518-21.748-1.219-32.459-2.865
		c-18.467-2.844-38.851-8.008-56.33-14.321c-8.019-2.899-16.15-7.124-24.823-10.504c-8.984-3.499-18.049-5.928-24.822-10.024
		c-5.601-3.389-11.506-8.388-17.184-12.887c-11.376-9.02-18.702-20.075-28.165-31.505c-4.877-5.895-10.954-10.172-14.32-15.276
		c-8.965-13.596-7.814-37.028-22.436-45.826c-3.6-2.165-11.004-3.991-14.798-6.204c-7.301-4.264-11.311-9.371-13.843-15.755
		c-7.443-18.753,2.426-46.771-0.479-73.033c-1.219-11.036-11.443-19.656-17.662-27.208c-6.141-7.46-16.638-15.436-14.321-30.077
		c1.505-9.501,11.741-16.509,15.754-30.072c3.975-13.439,2.444-28.547,9.069-39.62c5.173-8.647,16.865-15.385,20.526-25.301
		c4.94-13.374-2.157-28.168,0.955-40.575c1.611-6.424,12.995-20.879,18.617-21.481c6.647-0.708,12.351,6.024,19.571,6.206
		c5.876,0.147,13.188-3.631,18.617-7.16c7.496-4.874,16.307-13.374,20.526-19.572c2.762-4.056,4.069-9.132,6.683-13.365
		c2.471-4,5.944-7.167,9.07-10.978c10.096-12.314,16.497-24.043,35.324-26.732c5.71-0.817,11.856,1.064,18.617,0
		c24.985-3.942,48.702-14.638,76.375-17.664C411.615,152.766,411.942,152.841,412.254,152.8z M410.348,521.795
		c1.974-7.612,9.29-13.523,14.318-20.527c4.767-6.635,10.325-14.968,12.414-22.435c4.194-14.99-4.792-20.939-7.642-32.458
		c-1.243-5.04-1.434-10.136-2.86-13.847c-2.973-7.707-9.89-13.262-11.458-21.002c-4.072-20.099,12.805-25.627,13.365-42.006
		c0.202-5.915-0.517-10.105-2.862-15.276c-2.456-5.405-8.279-9.966-9.07-17.185c-0.628-5.725,1.982-12.089,2.387-18.139
		c0.896-13.39,0.721-28.217,1.909-42.485c1.178-14.152,4.805-27.579,5.729-39.143c1.228-15.402-3.242-20.862-5.729-33.416
		c-2.463-12.425,1.655-25.732-10.98-25.775c-6.752-0.024-17.033,2.198-24.344,4.295c-3.887,1.115-7.485,3.45-11.458,4.772
		c-4.35,1.452-9.024,1.855-12.888,3.343c-5.304,2.042-9.424,6.144-15.275,7.161c-9.746,1.694-21.591-3.569-30.072-0.477
		c-8.374,3.049-15.456,16.293-21.481,24.821c-2.971,4.201-6.363,9.261-9.548,13.844c-3.257,4.684-6.67,10.486-10.5,12.889
		c-3.653,2.291-8.189,2.326-12.411,3.819c-5.885,2.078-13.007,5.265-17.663,8.115c-5.297,3.243-9.226,10.171-14.798,14.32
		c-3.528,2.627-10.433,4.671-12.888,7.637c-5.826,7.038-7.146,25.117-5.728,36.28c0.757,5.97,5.2,10.781,4.773,18.139
		c-0.195,3.342-3.059,10.961-8.115,10.979c-4.015,0.015-6.252-7.243-10.025-5.729c-3.742,1.505-5.208,13.158-8.114,16.707
		c-3.416,4.172-8.369,4.763-10.98,7.637c-4.261,4.692-14.673,28.619-12.889,42.962c2.126,17.079,18.735,15.251,23.869,27.686
		c3.175,7.698,2.047,20.165,1.432,30.554c-1.136,19.213-5.479,43.706,8.592,50.121c3.419,1.561,7.543,1.3,10.978,2.865
		c7.337,3.338,13.135,15.328,15.754,22.435c4.496,12.192,3.919,26.963,9.546,36.756c2.108,3.667,6.113,7.21,9.07,10.502
		c3.161,3.518,6.4,7.506,9.547,10.023c6.142,4.916,14.513,7.074,21.958,11.936c8.133,5.31,13.634,12.477,20.525,17.184
		c6.847,4.676,15.268,8.38,22.913,12.888c16.12,9.508,31.576,14.483,52.034,19.573c10.037,2.498,20.32,4.282,31.026,5.248
		c11.631,1.052,22.658-0.952,33.892-0.952c11.39,0,22.843-1.362,34.37-1.911c11.853-0.565,20.952-3.453,28.639-7.159
		c11.613-5.597,19.179-14.176,34.848-16.706c4.414-0.714,9.104-2.21,12.89-2.388c3.671-0.172,7.055,1.684,11.934,0
		c5.167-1.785,8.162-9.408,10.979-15.752c5.372-12.097,11.478-22.084,21.479-27.687c4.812-2.695,10.591-3.037,14.323-5.254
		c6.747-4.005,9.881-12.805,13.844-20.524c3.455-6.733,8.23-12.757,10.5-19.094c5.595-15.622,2.139-37.16,8.116-53.942
		c3.466-9.73,9.942-18.882,14.797-27.21c5.268-9.033,10.834-19.175,13.364-29.117c2.883-11.309-1.485-22.176-1.428-35.8
		c0.042-10.894,0.292-21.85-1.91-30.075c-2.28-8.514-5.852-16.938-7.162-25.299c-1.536-9.823-2.284-18.901-5.252-27.686
		c-5.369-15.916-13.354-31.092-20.525-44.872c-3.48-6.689-7.962-13.844-13.843-19.094c-6.121-5.464-11.226-11.824-16.705-16.23
		c-3.376-2.707-6.899-4.394-10.026-6.682c-2.841-2.077-5.531-4.87-9.546-7.16c-5.441-3.105-11.17-4.742-16.229-7.639
		c-4.985-2.85-9.39-6.242-14.321-9.546c-10.112-6.771-21.107-9.89-33.414-14.799c-5.646-2.249-10.819-5.482-16.712-7.159
		c-12.088-3.441-26.19-5.703-41.05-7.161c-7.333-0.718-17.685-2.368-21.959,0.479c-3.978,2.647-3.852,11.021-3.341,15.752
		c1.095,10.173,6.464,19.659,7.163,29.597c0.741,10.603-3.792,17.138-5.733,26.729c-1.378,6.83-0.759,15.634-1.43,24.346
		c-0.435,5.651-2.018,11.062-2.389,16.23c-1.277,17.822,4.184,25.749,8.116,38.667c2.633,8.65,5.792,17.415,7.638,25.777
		c3.854,17.461-0.745,37.896,4.299,53.462c1.243,3.839,3.357,7.26,3.816,10.98c1.746,14.134-3.487,24.079-5.251,37.711
		c-1.273,9.843-0.95,20.208-2.864,29.595c-2.719,13.322-11.438,24.592-18.14,35.321c-2.904,4.654-7.813,12.707-5.727,17.664
		c2.001,4.753,12.69,5.108,18.614,5.729c8.05,0.844,16.539,1.912,23.391,0.954c8.918-1.252,14.071-6.722,21.484-12.89
		c5.535-4.607,12.293-7.991,16.705-11.934c7.618-6.809,11.301-20.78,21.958-23.869c5.524-1.597,9.646,0.315,13.364-1.428
		c8.419-3.95,10.293-26.894,11.936-38.189c0.972-6.686,1.695-14.843,3.344-21.482c1.156-4.677,1.972-16.109,11.933-11.455
		c0.618,10.719-6.129,20.723-8.596,32.461c-3.886,18.539-4.372,43.008-19.092,48.689c-3.629,1.4-8.215,0.926-11.935,2.385
		c-5.287,2.079-9.097,8.229-13.363,13.364c-4.033,4.854-8.659,10.637-12.893,13.847c-3.87,2.938-10.013,5.021-14.793,8.592
		c-5.021,3.746-8.514,8.268-13.846,10.022c-13.111,4.317-33.472-0.12-45.348-0.952c-11.011-0.775-19.829,1.29-28.166,0
		c-7.289-1.129-15.163-4.025-21.959-7.161c-10.899-5.026-17.566-14.029-26.73-21.004c-4.546-3.459-10.17-5.812-14.798-9.548
		c-4.978-4.017-9.518-10.49-14.8-16.228c-11.962-13.001-13.096-27.837-18.614-47.261c-1.171-4.119-2.651-9.016-3.343-13.842
		c-0.711-4.973-2.296-12.447,1.91-13.843c4.409,3.054,2.238,8.979,2.864,13.364c0.81,5.676,3.495,13.306,5.251,20.525
		c1.898,7.812,3.18,14.877,5.728,20.05c3.806,7.723,11.048,10.904,17.186,17.665c4.988,5.492,8.531,10.23,13.843,14.32
		c17.912,13.781,33.035,35.188,62.055,32.937C411.805,539.913,408.266,529.794,410.348,521.795z"/>
	<path fill-rule="evenodd" clip-rule="evenodd" fill="#FDFDFE" d="M231.815,427.757c2.582,7.449,4.869,16.379,4.774,26.253
		c-0.159,16.647-7.408,30.442,4.296,39.619c4.865,3.819,12.005,4.287,19.571,6.207c7.802,13.661,3.85,28.819,9.547,41.531
		c3.734,8.33,11.699,15.187,17.662,21.481c6.427,6.779,12.397,14.349,20.049,19.094c8.182,5.07,17.683,5.514,26.732,9.069
		c17.07,6.706,32.295,20.565,51.078,24.822c21.219,4.81,44.996,4.587,69.693,1.432c5.139-0.655,9.495-3.48,15.273-3.819
		c6.717-0.39,13.748,2.732,20.529,1.911c6.229-0.755,16.871-7.806,21.481-11.46c8.325-6.597,13.789-16.865,21.48-22.912
		c4.036-3.172,10.341-4.704,15.274-8.592c6.747-5.313,10.491-14.442,17.184-15.751c5.582-1.096,10.211,1.507,14.321,0.952
		c3.401-0.455,6.852-2.446,10.502-4.294c3.417-1.729,7.241-3.035,9.545-5.252c4.225-4.062,6.062-11.91,8.119-18.617
		c3.969-12.948,8.585-28.831,9.546-43.913c0.722-11.391-3.546-20.987-2.389-33.418c0.884-9.501,6.262-17.217,9.547-24.821
		c5.028-0.529,14.539-1.524,18.142,0.955c-0.837,9.09-6.823,13.989-10.024,21.004c-9.313,20.39-6.712,53.869-14.321,77.33
		c-1.829,5.636-4.818,12.009-7.161,19.098c-2.159,6.525-4.792,14.045-9.067,17.183c-3.248,2.379-8.411,2.891-12.414,4.77
		c-3.284,1.546-6.559,4.267-10.023,6.21c-3.616,2.024-7.433,3.393-10.502,5.249c-4.541,2.751-8.35,6.923-12.889,10.5
		c-4.306,3.397-9.609,5.821-13.844,9.073c-7.497,5.752-12.261,14.13-19.57,19.091c-5.465,3.715-10.53,4.478-14.799,6.683
		c-5.741,2.97-10.087,8.54-16.229,10.025c-8.047,1.95-17.375-0.536-26.258,0c-19.199,1.166-38.325,4.242-59.667,3.343
		c-19.462-0.818-40.104-6.681-56.328-15.274c-8.424-4.461-17.417-6.339-25.298-10.503c-8.083-4.269-16.604-8.073-23.391-13.364
		c-7.406-5.778-12.592-13.707-18.617-21.003c-5.965-7.228-14.179-13.179-19.093-20.53c-5.745-8.59-7.466-19.729-13.367-29.117
		c-5.355-8.519-12.921-11.253-18.14-17.187c-9.188-10.446-10.266-25.863-13.843-44.869c-1.241-6.596-3.738-15.39-4.295-21.481
		c-0.736-8.021-1.208-15.564,2.386-17.184C220.736,425.604,227.888,426.93,231.815,427.757z"/>
	<path fill-rule="evenodd" clip-rule="evenodd" fill="#FDFDFE" d="M603.198,429.19c-2.81,13.787-3.028,26.44-4.298,41.051
		c-1.2,13.828-0.511,29.614-6.682,39.621c-2.183,3.533-6.37,5.411-10.026,9.546c-3.185,3.603-5.582,7.992-8.592,10.023
		c-3.895,2.633-9.323,3.22-13.843,5.729c-4.854,2.697-8.842,7.858-13.842,10.98c-3.229,2.016-7.547,3.112-11.46,5.25
		c-9.049,4.944-17.214,13.151-25.774,19.571c-3.711,2.782-8.598,6.354-12.89,10.023c-4.374,3.747-8.683,8.64-12.412,10.026
		c-6.755,2.506-13.487-0.48-20.524,0c-6.854,0.468-11.663,3.646-17.661,4.294c-6.812,0.741-13.925-1.251-21.006-1.908
		c-5.756-0.535-13.383,0.48-20.526,0c-12.513-0.839-24.756-5.927-35.802-11.934c-10.285-5.595-21.522-11.467-30.072-17.662
		c-8.745-6.337-17.24-13.123-27.21-20.525c-8.652-6.426-18.994-17.197-22.435-25.3c-4.461-10.505-0.719-24.837-1.91-38.188
		c-1.455-16.32-17.201-31.204-9.07-48.213c2.27-0.279,4.402-0.692,7.16-0.479c2.543,8.752,1.606,16.863,3.819,24.822
		c2.123,7.639,5.879,14.152,7.159,21.481c1.125,6.436,0.512,12.499,1.433,18.14c1.476,9.04,5.243,17.848,10.502,25.301
		c4.94,6.997,12.267,11.56,20.05,17.185c7.294,5.271,13.921,11.233,21.001,16.227c14.68,10.363,30.685,21.282,49.645,24.824
		c9.395,1.754,17.717-0.254,27.212,0.477c5.919,0.456,11.808,2.937,17.66,2.863c6.02-0.076,10.656-2.684,16.71-2.863
		c6.295-0.186,12.725,1.609,18.141-0.477c4.628-1.786,7.605-6.554,11.932-10.024c4.393-3.527,9.965-5.743,13.364-8.591
		c9.45-7.918,13.61-18.139,24.823-24.827c4.567-2.722,9.491-3.19,14.796-5.726c3.622-1.727,6.809-4.919,10.982-8.114
		c3.59-2.752,8.713-5.186,10.978-7.636c3.127-3.391,4.147-9.393,6.681-14.323c1.826-3.546,5.526-6.735,8.116-11.454
		c5.752-10.485,8.986-28.632,10.98-44.873c0.902-7.354,0.328-13.761,4.772-15.274C597.552,427.392,601.011,427.47,603.198,429.19z"
		/>
</g>
<g>
	<path d="M-330.713,614.299c-105.413,0-191.172-85.761-191.172-191.174v-0.005h-25.822v0.005
		c0,119.649,97.342,216.984,216.995,216.984c119.65,0,216.989-97.335,216.989-216.984v-0.005h-25.815v0.005
		C-139.539,528.538-225.3,614.299-330.713,614.299z"/>
	<path d="M-177.775,423.125c0,84.332-68.6,152.938-152.938,152.938c-84.334,0-152.944-68.605-152.944-152.938v-0.005h-20.645v0.005
		c0,95.719,77.868,173.59,173.589,173.59c95.717,0,173.594-77.871,173.594-173.59v-0.005h-20.656V423.125z"/>
	<path d="M-330.713,151.887c-149.562,0-271.242,121.674-271.242,271.233v0.005c0,149.562,121.68,271.235,271.242,271.235
		c149.558,0,271.232-121.674,271.232-271.235v-0.005C-59.48,273.562-181.155,151.887-330.713,151.887z M-91.753,423.125
		c0,131.766-107.194,238.962-238.96,238.962c-131.768,0-238.966-107.196-238.966-238.962v-0.005
		c0-127.902,101.005-232.632,227.44-238.666v360.465c-62.074-5.833-110.826-58.225-110.826-121.794v-0.005h-16.511v0.005
		c0,76.572,62.292,138.864,138.863,138.864c76.576,0,138.877-62.292,138.877-138.864v-0.005h-16.52v0.005
		c0,63.569-48.747,115.961-110.835,121.794V184.454c126.438,6.034,227.438,110.764,227.438,238.666V423.125z"/>
</g>
</svg>
